<svg width="81" height="30" viewBox="0 0 81 30" fill="none" xmlns="http://www.w3.org/2000/svg">
<path d="M3.58 20.72V28.604C3.58 28.868 3.448 29 3.184 29H0.448002C0.184002 29 0.052002 28.868 0.052002 28.604V9.41602C0.052002 9.12802 0.184002 8.98401 0.448002 8.98401H0.772002C1.684 8.98401 2.38 9.23602 2.86 9.74002C3.34 10.22 3.58 11.024 3.58 12.152V17.516H11.464V9.41602C11.464 9.12802 11.596 8.98401 11.86 8.98401H12.184C13.12 8.98401 13.816 9.23602 14.272 9.74002C14.752 10.22 14.992 11.024 14.992 12.152V28.604C14.992 28.868 14.872 29 14.632 29H11.86C11.596 29 11.464 28.868 11.464 28.604V20.72H3.58Z" fill="white"/>
<path d="M25.1907 29.36C23.0787 29.36 21.3867 28.712 20.1147 27.416C18.8667 26.12 18.2427 24.392 18.2427 22.232C18.2427 20.096 18.8667 18.392 20.1147 17.12C21.3627 15.824 23.0427 15.176 25.1547 15.176C27.2667 15.176 28.9467 15.824 30.1947 17.12C31.4427 18.392 32.0667 20.096 32.0667 22.232C32.0667 24.368 31.4547 26.096 30.2307 27.416C29.0067 28.712 27.3267 29.36 25.1907 29.36ZM25.1547 26.084C26.0667 26.084 26.8587 25.796 27.5307 25.22C28.2027 24.62 28.5387 23.648 28.5387 22.304C28.5387 20.96 28.2027 19.976 27.5307 19.352C26.8587 18.728 26.0667 18.416 25.1547 18.416C24.2187 18.416 23.4147 18.728 22.7427 19.352C22.0947 19.952 21.7707 20.924 21.7707 22.268C21.7707 23.612 22.0947 24.584 22.7427 25.184C23.4147 25.784 24.2187 26.084 25.1547 26.084Z" fill="white"/>
<path d="M41.3969 25.544C41.4449 25.52 41.4929 25.484 41.5409 25.436C41.6129 25.388 41.6849 25.364 41.7569 25.364C41.9009 25.364 41.9969 25.424 42.0449 25.544C42.1169 25.64 42.1529 25.748 42.1529 25.868C42.1529 26.348 42.0449 26.864 41.8289 27.416C41.6129 27.944 41.2529 28.388 40.7489 28.748C40.2449 29.108 39.5489 29.288 38.6609 29.288C37.5329 29.288 36.6329 28.916 35.9609 28.172C35.3129 27.428 34.9889 26.276 34.9889 24.716V9.41602C34.9889 9.12802 35.1089 8.98401 35.3489 8.98401H35.5289C36.4649 8.98401 37.1849 9.22402 37.6889 9.70402C38.1929 10.16 38.4449 10.928 38.4449 12.008V24.392C38.4449 25.64 38.8889 26.264 39.7769 26.264C40.1369 26.264 40.4369 26.204 40.6769 26.084C40.9169 25.964 41.1569 25.784 41.3969 25.544Z" fill="white"/>
<path d="M53.6076 17.012V9.41602C53.6076 9.12802 53.7396 8.98401 54.0036 8.98401H54.1836C55.1196 8.98401 55.8276 9.22402 56.3076 9.70402C56.8116 10.16 57.0636 10.928 57.0636 12.008V28.604C57.0636 28.868 56.9436 29 56.7036 29H54.0036C53.7396 29 53.6076 28.868 53.6076 28.604V27.308C52.5996 28.652 51.1956 29.324 49.3956 29.324C48.0516 29.324 46.9116 29 45.9756 28.352C45.0636 27.704 44.3676 26.84 43.8876 25.76C43.4316 24.68 43.2036 23.492 43.2036 22.196C43.2036 20.852 43.4556 19.652 43.9596 18.596C44.4636 17.516 45.1956 16.664 46.1556 16.04C47.1156 15.416 48.2676 15.104 49.6116 15.104C50.5236 15.104 51.3156 15.272 51.9876 15.608C52.6836 15.944 53.2236 16.412 53.6076 17.012ZM50.1876 26.084C50.6436 26.084 51.1356 25.988 51.6636 25.796C52.1916 25.58 52.6476 25.196 53.0316 24.644C53.4156 24.092 53.6076 23.276 53.6076 22.196C53.6076 21.116 53.4156 20.312 53.0316 19.784C52.6476 19.232 52.1916 18.872 51.6636 18.704C51.1356 18.512 50.6556 18.416 50.2236 18.416C49.7436 18.416 49.2276 18.524 48.6756 18.74C48.1236 18.956 47.6556 19.34 47.2716 19.892C46.9116 20.42 46.7316 21.188 46.7316 22.196C46.7316 23.228 46.9236 24.032 47.3076 24.608C47.7156 25.16 48.1836 25.544 48.7116 25.76C49.2636 25.976 49.7556 26.084 50.1876 26.084Z" fill="white"/>
<path d="M61.1277 29C60.8637 29 60.7317 28.868 60.7317 28.604V4.50002C60.7317 3 59.5 5 59.5 4C59.5 3 62 0 62.5 0C63 0 65.5 3 65.5 4C65.5 5 64.2597 3 64.2597 4.50002V28.604C64.2597 28.868 64.1277 29 63.8637 29H61.1277Z" fill="#F54900"/>
<path d="M71.2046 17.228C71.6606 16.604 72.2366 16.112 72.9326 15.752C73.6526 15.392 74.4326 15.212 75.2726 15.212C76.9766 15.212 78.3086 15.716 79.2686 16.724C80.2526 17.732 80.7446 19.232 80.7446 21.224V28.604C80.7446 28.868 80.6126 29 80.3486 29H77.6846C77.4206 29 77.2886 28.868 77.2886 28.604V21.656C77.2886 20.48 77.0126 19.64 76.4606 19.136C75.9086 18.632 75.2126 18.38 74.3726 18.38C73.5326 18.38 72.8366 18.644 72.2846 19.172C71.7326 19.676 71.4566 20.528 71.4566 21.728V28.604C71.4566 28.868 71.3126 29 71.0246 29H68.3966C68.1326 29 68.0006 28.868 68.0006 28.604V15.896C68.0006 15.608 68.1326 15.464 68.3966 15.464H68.5766C69.2726 15.464 69.8486 15.62 70.3046 15.932C70.7606 16.22 71.0606 16.652 71.2046 17.228Z" fill="#F54900"/>
</svg>
